<?xml version="1.0" standalone="no"?>
<!DOCTYPE svg PUBLIC "-//W3C//DTD SVG 20010904//EN"
 "http://www.w3.org/TR/2001/REC-SVG-20010904/DTD/svg10.dtd">
<svg version="1.0" xmlns="http://www.w3.org/2000/svg"
 width="2500.000000pt" height="2500.000000pt" viewBox="0 0 2500.000000 2500.000000"
 preserveAspectRatio="xMidYMid meet">
<metadata>
Created by potrace 1.14, written by Peter Selinger 2001-2017
</metadata>
<g transform="translate(0.000000,2500.000000) scale(0.100000,-0.100000)"
fill="#000000" stroke="none">
<path d="M12310 18458 c-376 -10 -716 -47 -975 -104 -144 -32 -529 -139 -614
-170 -36 -13 -122 -45 -191 -70 -158 -58 -394 -165 -659 -299 -202 -101 -261
-137 -261 -156 0 -5 98 -9 238 -9 336 0 503 -18 757 -81 254 -63 772 -248
1095 -392 80 -35 295 -140 478 -232 l332 -168 143 63 c78 35 231 108 341 162
594 297 1176 508 1631 593 253 47 398 58 650 51 l230 -6 -112 70 c-222 138
-576 300 -936 429 -206 73 -591 187 -749 222 -343 75 -883 112 -1398 97z"/>
<path d="M11414 16801 c-213 -78 -525 -223 -511 -237 2 -3 89 -6 193 -8 211
-5 284 -16 494 -76 267 -77 466 -154 751 -291 103 -49 193 -89 200 -89 8 0 79
30 159 66 394 179 615 262 850 323 208 53 300 65 497 65 l181 0 -41 25 c-96
55 -312 153 -460 206 l-157 57 -123 -47 c-67 -26 -145 -58 -174 -71 -28 -13
-54 -24 -57 -24 -3 0 -36 -14 -73 -31 -152 -71 -212 -99 -293 -137 -150 -70
-214 -99 -254 -116 -46 -19 -13 -32 -341 129 -218 108 -319 155 -330 155 -3 0
-30 11 -58 24 -58 27 -258 105 -298 116 -19 6 -59 -4 -155 -39z"/>
<path d="M16325 16776 c-389 -102 -864 -389 -1380 -835 -200 -173 -795 -727
-795 -740 0 -4 13 -22 29 -41 46 -57 273 -352 417 -542 861 -1140 1800 -2731
2255 -3820 121 -290 181 -466 253 -751 114 -448 139 -749 85 -1028 -11 -56
-18 -104 -15 -106 8 -8 145 195 251 372 120 201 313 558 368 680 163 365 356
963 436 1353 68 330 97 766 88 1307 -14 765 -64 1088 -274 1755 -58 187 -206
561 -295 750 -150 318 -355 666 -554 940 -220 304 -505 620 -630 699 -60 38
-111 40 -239 7z"/>
<path d="M8515 16771 c-86 -39 -370 -338 -561 -592 -295 -390 -595 -927 -786
-1403 -116 -292 -243 -714 -297 -986 -30 -153 -118 -733 -138 -911 -23 -210
-23 -564 0 -764 33 -279 98 -680 158 -965 121 -575 339 -1149 627 -1652 122
-213 314 -516 360 -566 38 -42 38 -48 1 88 -51 192 -28 536 62 933 97 430 291
934 586 1522 125 249 365 707 383 730 4 6 43 73 85 150 334 600 856 1408 1333
2065 108 149 424 557 570 738 l32 40 -132 124 c-271 254 -331 309 -500 460
-594 530 -960 779 -1376 935 -204 77 -323 92 -407 54z"/>
<path d="M10405 16069 c33 -24 62 -45 65 -48 3 -3 41 -33 85 -66 89 -67 385
-315 455 -381 25 -24 54 -51 66 -61 27 -23 170 -152 242 -219 53 -49 54 -50
36 -69 -11 -10 -28 -31 -39 -46 -23 -31 -297 -372 -305 -379 -3 -3 -24 -30
-45 -60 -22 -30 -45 -62 -52 -70 -52 -64 -222 -302 -435 -610 -69 -99 -258
-388 -258 -394 0 -2 -27 -45 -60 -94 -33 -50 -60 -94 -60 -98 0 -4 -10 -21
-23 -38 -13 -17 -35 -51 -49 -76 -13 -25 -71 -123 -126 -218 -56 -95 -102
-175 -102 -178 0 -2 -10 -21 -23 -42 -24 -37 -86 -153 -167 -308 l-42 -82 61
-118 c34 -66 92 -167 129 -226 69 -111 174 -259 179 -254 2 2 -4 32 -13 67
-41 160 16 485 141 806 246 626 902 1659 1487 2341 48 57 88 107 88 112 0 9
-311 281 -455 396 -281 226 -480 346 -685 412 -156 50 -164 50 -95 1z"/>
<path d="M14609 16071 c-64 -22 -154 -58 -200 -81 -107 -53 -333 -205 -469
-313 -79 -63 -401 -340 -472 -406 -5 -4 22 -43 59 -86 312 -375 558 -707 814
-1102 319 -490 579 -969 714 -1313 105 -269 159 -597 124 -760 -6 -27 -9 -55
-7 -62 9 -27 228 315 336 526 l51 100 -18 30 c-10 17 -48 85 -83 151 -62 113
-95 174 -141 255 -11 19 -27 48 -35 64 -8 16 -44 76 -79 134 -34 58 -63 106
-63 109 0 5 -143 234 -171 275 -11 15 -19 30 -19 34 0 4 -10 21 -23 38 -12 17
-40 60 -62 96 -21 36 -43 70 -47 75 -5 6 -56 82 -115 170 -129 196 -338 496
-364 524 -10 11 -19 23 -19 25 0 3 -6 14 -14 23 -8 10 -37 47 -63 83 -26 36
-53 72 -60 80 -6 8 -62 80 -124 160 -62 80 -116 147 -119 150 -18 15 -150 189
-150 197 0 11 91 99 219 213 47 41 97 86 111 100 32 30 172 156 215 192 17 14
73 60 125 102 52 42 102 82 110 89 8 7 53 40 100 74 138 100 131 92 90 93 -19
0 -87 -18 -151 -39z"/>
<path d="M12413 14341 c-396 -298 -1032 -915 -1400 -1357 -220 -265 -399 -518
-521 -739 -59 -107 -133 -279 -146 -340 l-6 -30 27 32 c16 17 55 66 88 108 33
43 67 85 75 95 18 22 33 40 85 105 21 28 42 52 46 55 3 3 30 34 60 70 29 36
56 67 59 70 5 4 43 48 185 209 90 102 219 235 475 491 330 330 449 443 670
636 25 21 47 42 50 45 3 3 34 30 70 60 36 29 70 58 76 64 6 5 26 21 44 35 19
14 54 41 80 61 25 20 70 50 100 67 l54 31 45 -26 c25 -15 60 -38 77 -52 17
-14 42 -35 55 -45 43 -34 176 -148 228 -195 214 -194 511 -481 805 -781 268
-273 300 -306 408 -423 51 -55 100 -108 108 -116 8 -9 50 -57 94 -106 43 -50
91 -103 105 -120 15 -16 45 -52 66 -80 22 -27 42 -52 45 -55 3 -3 19 -23 35
-45 16 -22 35 -47 42 -55 7 -8 20 -24 28 -35 69 -87 -120 293 -232 468 -146
227 -358 503 -551 714 -391 430 -1143 1137 -1332 1252 -19 11 -45 21 -57 21
-13 0 -74 -39 -140 -89z"/>
<path d="M12467 13595 c-306 -185 -1349 -1182 -2007 -1920 -921 -1032 -1574
-2011 -1798 -2695 -147 -446 -130 -730 57 -963 146 -181 581 -499 1031 -754
556 -315 1261 -564 1861 -657 690 -107 1488 -80 2189 75 296 65 370 86 601
168 624 222 1392 659 1819 1033 241 211 298 333 287 612 -11 264 -82 499 -276
911 -238 504 -769 1281 -1290 1885 -705 819 -2011 2116 -2328 2314 -56 34 -76
33 -146 -9z m-202 -1805 c162 -42 598 -189 732 -246 319 -135 502 -291 599
-511 33 -72 49 -126 71 -234 25 -119 25 -464 1 -564 -49 -199 -131 -322 -268
-402 -59 -35 -76 -52 -58 -57 7 -3 99 -7 203 -9 195 -5 332 -24 495 -68 363
-99 524 -216 522 -381 -1 -90 -50 -164 -157 -238 -89 -61 -138 -82 -1276 -534
-132 -52 -231 -86 -253 -86 -20 0 -52 9 -72 20 l-37 19 -29 -40 c-34 -47 -69
-63 -123 -55 -63 9 -582 182 -614 205 -32 23 -61 85 -61 134 0 81 -16 91 -91
58 -90 -39 -410 -56 -619 -32 -177 21 -391 74 -535 134 -91 37 -180 103 -221
163 -36 52 -39 62 -39 123 0 92 32 144 134 219 131 98 223 139 641 292 107 39
211 77 230 85 19 8 104 39 189 71 149 55 155 57 226 51 69 -6 73 -5 79 16 3
12 6 423 6 912 1 943 1 952 47 979 48 29 94 25 278 -24z m992 -3306 c-3 -3
-12 -4 -19 -1 -8 3 -5 6 6 6 11 1 17 -2 13 -5z"/>
<path d="M12755 11128 c-8 -46 -2 -1515 7 -1523 4 -4 29 6 55 23 49 31 113 55
263 99 128 37 125 44 -40 83 -68 17 -138 59 -163 99 -22 36 -22 38 -27 611 -5
630 -6 632 -62 638 -23 3 -28 -1 -33 -30z"/>
<path d="M11865 9442 c-17 -10 -57 -29 -90 -41 -33 -12 -87 -33 -120 -46 -33
-13 -145 -55 -249 -94 -204 -77 -231 -92 -216 -122 19 -34 214 -34 303 1 12 4
88 30 169 56 137 45 149 48 197 38 28 -6 56 -7 63 -3 15 9 24 140 14 194 -8
40 -25 44 -71 17z"/>
<path d="M13645 9413 c-96 -15 -190 -48 -577 -204 -163 -65 -182 -69 -251 -50
-26 8 -50 11 -54 7 -10 -10 -16 -160 -9 -210 9 -55 18 -57 83 -16 27 17 251
111 498 209 293 117 460 189 480 206 l30 27 -29 15 c-30 16 -120 24 -171 16z"/>
</g>
</svg>
