<?xml version="1.0" encoding="UTF-8" ?>
<!DOCTYPE svg PUBLIC "-//W3C//DTD SVG 1.1//EN" "http://www.w3.org/Graphics/SVG/1.1/DTD/svg11.dtd">
<svg width="1250pt" height="834pt" viewBox="0 0 1250 834" version="1.1" xmlns="http://www.w3.org/2000/svg">
<g id="#0070d1ff">
<path fill="#0070d1" opacity="1.00" d=" M 538.93 131.08 C 558.70 124.74 579.11 120.09 599.89 118.89 C 624.28 117.51 648.87 117.51 673.10 120.88 C 691.34 123.76 709.07 129.25 726.41 135.49 C 743.87 141.93 760.96 149.62 776.51 159.93 C 767.02 159.54 757.50 158.74 748.02 159.59 C 731.40 161.10 715.15 165.32 699.37 170.61 C 682.54 176.32 666.20 183.38 650.31 191.32 C 642.57 195.08 634.90 199.02 626.91 202.23 C 625.40 203.04 623.89 201.96 622.52 201.42 C 610.22 195.40 598.26 188.68 585.71 183.18 C 575.86 178.80 565.82 174.86 555.66 171.25 C 545.84 167.79 535.90 164.65 525.78 162.23 C 513.41 159.23 500.58 158.86 487.92 159.40 C 485.19 159.52 482.46 159.44 479.76 159.07 C 481.20 156.34 484.24 155.23 486.76 153.78 C 503.63 145.10 520.83 136.88 538.93 131.08 Z" />
<path fill="#0070d1" opacity="1.00" d=" M 807.97 205.07 C 813.73 203.14 819.75 200.51 825.94 201.39 C 831.42 204.15 835.60 208.87 839.86 213.18 C 875.36 251.64 898.73 300.34 910.41 351.12 C 914.51 368.11 915.43 385.65 916.21 403.04 C 916.59 424.35 916.50 445.77 913.38 466.90 C 911.00 480.67 907.38 494.21 903.25 507.56 C 898.49 522.66 893.14 537.66 885.77 551.72 C 879.36 564.10 872.52 576.27 864.96 587.99 C 862.92 591.07 860.90 594.21 858.20 596.76 C 858.46 591.76 860.15 586.98 860.38 581.99 C 861.09 569.37 859.03 556.79 856.34 544.50 C 850.54 518.17 839.30 493.47 827.55 469.34 C 803.08 420.48 774.60 373.65 743.07 329.02 C 731.60 312.67 719.10 297.09 707.00 281.21 C 729.87 259.86 752.22 237.59 778.43 220.25 C 787.62 214.03 797.58 208.97 807.97 205.07 Z" />
<path fill="#0070d1" opacity="1.00" d=" M 418.40 208.36 C 422.38 204.19 427.82 200.17 433.95 201.72 C 449.48 205.18 463.84 212.61 476.92 221.52 C 502.25 239.03 524.27 260.69 546.81 281.54 C 523.89 309.76 502.48 339.21 482.78 369.77 C 462.91 400.49 444.42 432.12 427.98 464.80 C 417.32 486.32 407.29 508.30 400.60 531.43 C 395.91 548.17 392.05 565.50 392.89 582.99 C 392.89 588.05 395.19 592.65 395.88 597.58 C 392.42 594.12 389.96 589.85 387.22 585.83 C 374.87 566.85 364.11 546.75 356.29 525.47 C 344.66 494.20 338.89 461.07 335.77 427.95 C 334.31 411.22 336.74 394.50 339.01 377.97 C 340.58 367.61 341.93 357.20 344.28 346.98 C 350.45 319.73 360.81 293.51 374.02 268.93 C 386.00 246.88 400.48 226.01 418.40 208.36 Z" />
<path fill="#0070d1" opacity="1.00" d=" M 609.21 372.28 C 614.66 367.91 619.89 363.04 626.19 359.91 C 627.85 358.94 629.49 360.42 630.90 361.16 C 636.82 365.11 642.06 369.95 647.42 374.60 C 667.73 392.94 687.00 412.39 706.04 432.03 C 731.10 458.14 755.70 484.84 776.80 514.31 C 788.04 530.02 798.73 546.17 807.78 563.26 C 815.48 577.97 822.46 593.39 825.26 609.87 C 826.86 619.68 826.57 630.89 819.82 638.84 C 811.55 648.65 800.96 656.14 790.45 663.35 C 766.98 678.84 741.83 692.03 715.19 701.15 C 680.03 712.28 642.76 716.25 606.00 714.39 C 547.25 710.67 490.64 686.74 444.96 649.98 C 437.53 643.72 430.22 636.07 428.58 626.11 C 426.13 611.12 430.97 596.18 436.45 582.41 C 448.13 554.65 465.23 529.60 483.17 505.56 C 499.56 484.01 517.20 463.43 535.59 443.55 C 558.94 418.62 583.28 394.54 609.21 372.28 M 597.70 452.62 C 596.94 457.71 596.38 462.85 596.62 468.01 C 596.57 494.27 596.74 520.52 596.53 546.78 C 593.78 546.25 590.91 544.89 588.17 546.18 C 577.72 550.02 567.30 553.92 556.85 557.78 C 547.45 561.35 537.61 564.29 529.36 570.25 C 526.01 572.66 522.37 575.64 521.54 579.89 C 520.45 585.86 524.94 591.16 529.82 593.91 C 540.01 599.43 551.54 601.77 562.90 603.39 C 574.11 603.55 585.83 604.74 596.40 600.11 C 596.69 603.06 596.86 606.11 598.02 608.88 C 599.29 611.08 601.75 612.13 604.04 612.97 C 611.83 615.66 619.77 617.91 627.55 620.65 C 629.70 621.44 632.02 621.50 634.29 621.66 C 635.92 620.08 637.22 618.22 638.27 616.23 C 639.47 617.00 640.66 617.78 641.86 618.59 C 643.83 618.50 645.89 618.57 647.75 617.73 C 668.46 609.43 689.20 601.19 709.93 592.94 C 715.73 590.48 721.63 587.53 725.75 582.62 C 728.33 579.62 729.48 575.20 727.65 571.54 C 725.71 566.96 721.46 563.98 717.14 561.87 C 701.44 554.51 683.90 552.79 666.80 552.34 C 671.53 549.00 676.68 545.73 679.43 540.42 C 684.95 530.95 684.80 519.63 684.43 509.03 C 683.48 500.15 681.65 491.03 676.40 483.60 C 669.02 472.37 656.23 466.48 644.05 461.94 C 631.26 457.19 618.24 453.04 604.99 449.78 C 602.27 448.87 598.82 449.88 597.70 452.62 M 661.45 617.09 C 661.63 620.42 664.39 615.50 661.45 617.09 Z" />
<path fill="#0070d1" opacity="1.00" d=" M 637.52 484.46 C 638.82 484.46 640.12 484.47 641.43 484.48 C 641.97 486.61 642.52 488.77 642.52 491.00 C 642.60 508.54 642.35 526.08 642.64 543.61 C 644.22 550.29 652.14 550.52 657.33 552.85 C 655.53 555.43 652.10 555.49 649.39 556.48 C 645.97 557.29 642.88 558.95 639.79 560.55 C 637.86 561.06 637.31 558.49 637.50 557.12 C 637.53 532.90 637.48 508.68 637.52 484.46 Z" />
<path fill="#0070d1" opacity="1.00" d=" M 573.58 577.29 C 580.83 574.35 588.49 572.31 595.30 568.39 C 595.61 568.70 596.21 569.32 596.52 569.63 C 596.80 572.95 596.54 576.28 596.60 579.62 C 594.19 579.56 591.77 579.37 589.37 579.61 C 581.82 581.42 574.79 585.80 566.83 585.62 C 564.03 585.54 560.86 586.15 558.61 584.03 C 562.93 580.50 568.54 579.40 573.58 577.29 Z" />
<path fill="#0070d1" opacity="1.00" d=" M 675.82 572.35 C 680.69 571.33 685.84 569.68 690.72 571.49 C 690.62 572.44 690.53 573.40 690.45 574.37 C 673.84 581.27 656.95 587.57 640.42 594.63 C 639.45 594.64 638.48 594.61 637.52 594.53 C 637.59 590.75 636.95 586.80 638.53 583.23 C 640.96 583.81 643.58 585.12 646.07 583.98 C 656.05 580.28 665.83 576.02 675.82 572.35 Z" />
</g>
<g id="#ebcc32ff">
<path fill="#0070d1" opacity="1.00" d=" M 555.66 171.25 C 565.82 174.86 575.86 178.80 585.71 183.18 C 598.26 188.68 610.22 195.40 622.52 201.42 C 623.89 201.96 625.40 203.04 626.91 202.23 C 634.90 199.02 642.57 195.08 650.31 191.32 C 666.20 183.38 682.54 176.32 699.37 170.61 C 713.88 175.67 728.28 181.48 741.17 189.97 C 736.43 190.12 731.75 189.21 727.02 189.39 C 710.45 189.63 694.30 194.09 678.71 199.36 C 661.10 205.25 644.81 214.25 627.74 221.45 C 618.60 217.23 609.78 212.34 600.57 208.26 C 592.98 204.81 585.17 201.86 577.35 199.02 C 567.77 195.78 558.10 192.68 548.16 190.75 C 538.19 188.82 528.01 189.81 517.95 189.28 C 520.35 186.69 523.68 185.36 526.75 183.76 C 536.24 179.27 545.71 174.65 555.66 171.25 Z" />
<path fill="#0070d1" opacity="1.00" d=" M 476.92 221.52 C 478.97 220.62 481.23 220.00 483.47 220.60 C 495.58 223.35 506.82 229.01 517.04 235.96 C 535.55 248.64 551.77 264.22 568.44 279.13 C 533.65 320.98 503.32 366.57 478.28 414.89 C 468.40 434.61 459.16 454.96 454.81 476.71 C 452.55 487.99 450.87 500.08 455.16 511.10 C 451.11 506.94 448.22 501.83 445.02 497.03 C 438.51 486.76 432.45 476.13 427.98 464.80 C 444.42 432.12 462.91 400.49 482.78 369.77 C 502.48 339.21 523.89 309.76 546.81 281.54 C 524.27 260.69 502.25 239.03 476.92 221.52 Z" />
<path fill="#0070d1" opacity="1.00" d=" M 763.02 223.93 C 767.95 222.04 773.06 220.10 778.43 220.25 C 752.22 237.59 729.87 259.86 707.00 281.21 C 719.10 297.09 731.60 312.67 743.07 329.02 C 774.60 373.65 803.08 420.48 827.55 469.34 C 824.02 476.99 819.82 484.30 815.61 491.58 C 811.59 497.95 808.06 504.74 802.92 510.32 C 803.17 506.50 804.48 502.83 804.55 499.01 C 805.13 482.93 800.90 467.11 795.60 452.07 C 790.62 438.62 784.36 425.69 777.88 412.91 C 760.25 379.25 740.09 346.93 717.86 316.12 C 708.75 303.42 698.87 291.30 689.20 279.03 C 705.53 263.89 721.74 248.43 740.25 235.95 C 747.35 231.09 754.96 226.96 763.02 223.93 Z" />
<path fill="#0070d1" opacity="1.00" d=" M 608.54 351.57 C 615.11 346.04 621.58 340.24 629.13 336.04 C 639.87 342.51 648.75 351.57 657.99 359.94 C 673.31 374.30 688.23 389.10 702.68 404.34 C 715.08 417.26 727.06 430.61 737.86 444.92 C 749.05 459.50 759.44 474.78 767.80 491.18 C 771.46 498.60 774.91 506.22 776.80 514.31 C 755.70 484.84 731.10 458.14 706.04 432.03 C 687.00 412.39 667.73 392.94 647.42 374.60 C 642.06 369.95 636.82 365.11 630.90 361.16 C 629.49 360.42 627.85 358.94 626.19 359.91 C 619.89 363.04 614.66 367.91 609.21 372.28 C 583.28 394.54 558.94 418.62 535.59 443.55 C 517.20 463.43 499.56 484.01 483.17 505.56 C 490.88 484.84 503.47 466.39 516.55 448.72 C 543.68 413.21 575.03 381.07 608.54 351.57 Z" />
</g>
<g id="#107c10ff">
<path fill="#0070d1" opacity="1.00" d=" M 577.35 199.02 C 585.17 201.86 592.98 204.81 600.57 208.26 C 609.78 212.34 618.60 217.23 627.74 221.45 C 644.81 214.25 661.10 205.25 678.71 199.36 C 690.18 203.29 701.66 207.53 711.96 214.04 C 690.19 211.91 668.84 218.68 649.03 227.05 C 641.62 230.08 634.58 234.06 626.99 236.62 C 622.80 235.22 618.96 232.96 614.95 231.14 C 604.73 226.11 594.06 222.09 583.20 218.69 C 575.32 216.26 567.26 214.06 558.97 213.81 C 554.15 213.28 549.31 214.24 544.50 213.63 C 546.88 211.37 549.99 210.21 552.90 208.81 C 560.85 205.09 568.95 201.63 577.35 199.02 Z" />
<path fill="#0070d1" opacity="1.00" d=" M 517.04 235.96 C 530.11 237.95 541.62 245.16 552.06 252.88 C 562.69 260.85 572.60 269.71 582.56 278.48 C 558.75 305.75 537.98 335.62 520.07 367.06 C 509.97 385.33 500.13 404.30 496.58 425.09 C 495.40 431.93 494.97 439.14 497.59 445.72 C 489.65 436.53 483.54 425.81 478.28 414.89 C 503.32 366.57 533.65 320.98 568.44 279.13 C 551.77 264.22 535.55 248.64 517.04 235.96 Z" />
<path fill="#0070d1" opacity="1.00" d=" M 718.68 242.79 C 725.46 239.53 732.55 235.95 740.25 235.95 C 721.74 248.43 705.53 263.89 689.20 279.03 C 698.87 291.30 708.75 303.42 717.86 316.12 C 740.09 346.93 760.25 379.25 777.88 412.91 C 774.83 419.92 770.86 426.48 766.89 433.00 C 764.16 437.25 761.59 441.69 758.05 445.35 C 761.13 433.84 758.54 421.89 755.26 410.74 C 751.05 397.22 744.53 384.57 737.84 372.14 C 719.42 338.77 697.59 307.29 672.87 278.28 C 687.38 265.54 701.64 252.13 718.68 242.79 Z" />
<path fill="#0070d1" opacity="1.00" d=" M 607.14 335.23 C 613.86 329.67 620.29 323.59 628.01 319.43 C 634.16 322.89 639.34 327.77 644.70 332.30 C 660.43 346.20 675.53 360.81 690.11 375.91 C 700.65 386.82 710.35 398.55 719.15 410.91 C 726.60 421.51 733.43 432.69 737.86 444.92 C 727.06 430.61 715.08 417.26 702.68 404.34 C 688.23 389.10 673.31 374.30 657.99 359.94 C 648.75 351.57 639.87 342.51 629.13 336.04 C 621.58 340.24 615.11 346.04 608.54 351.57 C 575.03 381.07 543.68 413.21 516.55 448.72 C 519.98 434.59 528.18 422.23 536.37 410.44 C 556.67 382.51 581.20 357.91 607.14 335.23 Z" />
</g>
<g id="#61998bff">
<path fill="#61998b" opacity="1.00" d=" M 661.45 617.09 C 664.39 615.50 661.63 620.42 661.45 617.09 Z" />
</g>
<g id="#ffea00ff">
<path fill="#ffea00" opacity="0.00" d=" M 603.10 456.13 C 610.32 456.28 617.04 459.16 623.90 461.07 C 631.08 463.11 637.89 466.33 645.18 467.99 C 651.59 468.45 657.00 472.23 662.30 475.51 C 670.06 480.51 675.75 488.47 678.14 497.37 C 680.12 503.74 679.63 510.47 679.72 517.04 C 679.60 521.62 680.43 526.56 677.81 530.65 C 675.36 535.52 673.92 541.56 668.83 544.44 C 662.65 547.83 654.98 546.87 648.74 544.13 C 647.85 526.42 648.71 508.66 648.31 490.94 C 648.09 486.23 646.80 481.04 642.87 478.06 C 640.44 476.09 636.48 475.85 634.38 478.42 C 630.75 483.12 631.76 489.45 631.65 494.99 C 631.60 534.90 631.81 574.82 631.54 614.73 C 626.02 614.90 620.91 612.66 615.75 611.06 C 612.05 609.80 608.18 608.94 604.70 607.14 C 602.29 606.10 602.67 603.10 602.54 600.96 C 602.63 558.64 602.54 516.31 602.58 473.99 C 602.64 468.03 602.21 462.05 603.10 456.13 Z" />
<path fill="#ffea00" opacity="0.00" d=" M 585.11 553.21 C 586.80 552.47 588.65 552.39 590.47 552.37 C 590.54 556.27 591.19 560.32 590.21 564.15 C 589.11 565.47 587.43 566.04 585.90 566.69 C 577.88 569.62 569.88 572.64 561.88 575.64 C 558.26 577.06 554.24 578.66 552.27 582.26 C 550.52 584.73 552.46 587.91 554.65 589.36 C 559.46 592.45 565.58 591.64 570.99 591.14 C 577.73 590.36 583.69 586.08 590.56 586.32 C 590.16 589.85 592.46 595.55 587.90 596.98 C 570.50 599.55 552.35 597.47 535.99 590.86 C 532.71 589.51 529.37 587.58 527.68 584.33 C 526.68 581.62 527.54 578.55 529.88 576.84 C 537.42 570.53 546.92 567.30 556.06 564.05 C 565.70 560.34 575.48 556.97 585.11 553.21 Z" />
<path fill="#ffea00" opacity="0.00" d=" M 663.95 559.36 C 678.97 557.14 694.37 559.58 708.65 564.47 C 713.62 566.25 719.14 568.23 722.01 573.01 C 723.41 575.45 722.26 578.51 720.30 580.30 C 714.86 585.54 707.47 587.83 700.62 590.61 C 683.70 597.38 666.73 604.05 649.83 610.85 C 648.13 611.56 646.29 611.62 644.50 611.70 C 644.43 607.74 643.92 603.70 644.73 599.80 C 645.86 598.46 647.52 597.75 649.09 597.05 C 662.39 591.73 675.73 586.50 689.01 581.10 C 693.46 579.38 698.33 577.06 699.57 571.97 C 698.50 569.65 697.03 567.31 694.47 566.47 C 686.85 563.77 678.48 565.26 671.10 568.01 C 663.92 570.84 656.77 573.73 649.62 576.60 C 648.00 577.28 646.25 577.49 644.52 577.62 C 644.43 573.34 643.91 569.00 644.73 564.77 C 650.36 561.13 657.38 560.11 663.95 559.36 Z" />
</g>
<g id="#84a733fe">
</g>
</svg>
