<?xml version="1.0" encoding="UTF-8" ?>
<!DOCTYPE svg PUBLIC "-//W3C//DTD SVG 1.1//EN" "http://www.w3.org/Graphics/SVG/1.1/DTD/svg11.dtd">
<svg width="1250pt" height="834pt" viewBox="0 0 1250 834" version="1.1" xmlns="http://www.w3.org/2000/svg">
<g id="#ffffffff">
</g>
<g id="#0070d1ff">
<path fill="#0070d1" opacity="1.00" d=" M 591.12 119.58 C 601.04 118.47 611.02 118.25 621.00 118.06 C 636.03 117.91 651.10 118.18 666.04 119.99 C 677.93 121.04 689.51 124.08 701.00 127.17 C 718.41 132.23 735.53 138.36 751.93 146.11 C 760.35 150.01 768.42 154.65 776.11 159.82 C 764.75 159.49 753.32 158.53 742.01 160.18 C 727.59 162.23 713.43 165.87 699.64 170.52 C 684.35 175.63 669.50 181.96 655.01 189.01 C 647.38 192.74 639.79 196.56 632.10 200.14 C 629.63 201.09 627.01 202.61 624.29 201.89 C 620.14 200.68 616.44 198.34 612.60 196.42 C 594.12 186.58 575.00 177.89 555.17 171.11 C 544.38 167.32 533.45 163.89 522.26 161.47 C 511.66 159.25 500.77 159.03 489.98 159.35 C 486.50 159.45 483.01 159.31 479.54 158.92 C 481.92 156.77 484.48 154.81 487.36 153.38 C 505.02 144.48 522.94 135.86 541.91 130.07 C 557.98 125.23 574.38 121.22 591.12 119.58 Z" />
<path fill="#0070d1" opacity="1.00" d=" M 813.03 203.23 C 816.57 202.10 820.24 201.06 824.00 201.16 C 826.80 201.22 829.07 203.14 831.16 204.80 C 837.12 209.84 842.29 215.71 847.36 221.62 C 872.96 251.88 891.55 287.72 903.46 325.43 C 909.12 343.85 913.86 362.70 915.04 382.01 C 916.00 399.64 916.97 417.31 916.01 434.96 C 915.60 442.00 915.46 449.05 914.78 456.07 C 913.75 467.67 911.17 479.06 908.21 490.31 C 903.72 507.56 898.09 524.53 890.99 540.89 C 883.48 557.18 874.56 572.79 865.02 587.96 C 863.14 591.03 860.83 593.81 858.30 596.37 C 859.05 588.59 861.11 580.89 860.40 573.01 C 858.45 536.36 843.61 502.09 827.64 469.59 C 811.54 437.09 793.35 405.65 773.95 375.02 C 757.62 349.38 740.39 324.28 721.71 300.29 C 716.81 293.94 711.81 287.66 707.03 281.22 C 729.81 259.82 752.23 237.72 778.30 220.24 C 789.10 213.15 800.74 207.28 813.03 203.23 Z" />
<path fill="#0070d1" opacity="1.00" d=" M 426.42 202.39 C 429.71 200.97 433.40 201.51 436.78 202.32 C 451.07 206.14 464.36 213.03 476.61 221.23 C 501.99 238.94 524.29 260.53 546.81 281.64 C 516.86 318.15 489.96 357.10 465.43 397.43 C 452.11 419.41 439.50 441.84 427.98 464.83 C 413.91 493.06 401.10 522.37 395.32 553.56 C 393.76 562.62 392.45 571.80 392.78 581.02 C 392.96 586.57 394.70 591.88 395.76 597.29 C 393.98 595.35 392.27 593.35 390.75 591.22 C 378.71 573.24 367.97 554.33 359.74 534.29 C 345.99 501.21 339.57 465.64 335.89 430.17 C 333.83 409.87 337.45 389.64 340.25 369.60 C 343.69 342.68 351.85 316.52 362.78 291.73 C 376.20 262.05 393.40 233.68 416.37 210.37 C 419.40 207.37 422.42 204.11 426.42 202.39 Z" />
<path fill="#0070d1" opacity="1.00" d=" M 624.07 361.03 C 625.46 360.35 627.08 359.42 628.66 360.15 C 632.10 361.46 634.92 363.95 637.76 366.23 C 653.63 379.62 668.46 394.19 683.21 408.79 C 704.87 430.49 726.11 452.63 746.27 475.73 C 757.04 488.05 767.04 501.02 776.76 514.18 C 791.71 535.22 805.90 557.02 816.20 580.77 C 821.51 593.19 826.09 606.35 826.05 620.01 C 826.09 626.99 823.97 634.06 819.38 639.40 C 811.62 648.40 801.90 655.44 792.19 662.19 C 772.34 675.61 751.10 686.99 728.91 696.05 C 714.22 702.22 698.74 706.35 683.09 709.26 C 662.99 713.24 642.48 714.86 622.01 714.84 C 608.92 714.75 595.81 714.04 582.89 711.94 C 558.79 708.07 535.13 701.24 512.84 691.29 C 490.85 681.79 470.29 669.21 451.12 654.89 C 444.75 650.01 438.41 644.84 433.72 638.25 C 430.57 633.80 428.61 628.52 428.14 623.09 C 427.23 613.35 429.18 603.58 432.13 594.33 C 437.64 576.83 446.49 560.61 455.98 545.00 C 464.59 530.91 474.28 517.52 484.06 504.23 C 513.89 465.73 546.98 429.79 582.44 396.42 C 593.08 386.37 603.89 376.48 615.29 367.28 C 618.10 365.05 620.90 362.74 624.07 361.03 M 599.45 448.57 C 597.11 449.49 596.04 452.07 595.66 454.38 C 595.02 458.55 595.31 462.79 595.32 467.00 C 595.43 490.34 595.22 513.69 595.44 537.03 C 595.31 539.10 595.45 541.36 594.37 543.23 C 589.96 544.78 585.26 545.32 580.92 547.07 C 569.60 551.60 558.08 555.60 546.65 559.81 C 541.33 561.85 536.31 564.56 531.45 567.49 C 527.46 569.99 523.46 572.92 521.20 577.16 C 519.32 580.80 520.24 585.28 522.44 588.57 C 525.36 593.11 530.19 595.96 535.14 597.82 C 549.70 603.36 565.47 605.99 581.03 604.78 C 585.51 604.49 589.91 603.08 594.43 603.40 C 596.02 605.94 596.82 608.94 598.67 611.34 C 600.46 613.11 602.98 613.84 605.28 614.72 C 611.06 616.61 616.92 618.27 622.63 620.37 C 625.69 621.35 628.75 622.66 632.01 622.72 C 634.79 622.26 637.43 621.16 640.17 620.51 C 643.96 619.50 647.93 619.11 651.58 617.61 C 664.61 612.19 677.77 607.12 690.84 601.81 C 700.62 598.08 710.81 595.15 719.89 589.79 C 723.30 587.74 726.66 585.18 728.43 581.52 C 730.28 577.59 730.36 572.66 728.01 568.93 C 725.17 564.43 720.55 561.37 715.70 559.41 C 706.52 555.74 696.88 553.07 687.01 552.18 C 682.79 551.71 678.41 551.78 674.42 550.14 C 677.25 545.46 681.24 541.47 683.16 536.27 C 685.89 529.54 685.94 522.15 685.92 515.01 C 685.87 506.32 685.05 497.40 681.52 489.37 C 678.02 481.81 672.51 475.12 665.50 470.58 C 657.77 465.32 648.98 462.01 640.24 458.88 C 630.52 455.25 620.53 452.44 610.57 449.56 C 606.96 448.67 603.13 447.62 599.45 448.57 M 661.31 617.08 L 661.31 617.90 L 662.03 618.31 L 662.74 617.90 L 662.74 617.07 L 662.02 616.66 L 661.31 617.08 Z" />
<path fill="#0070d1" opacity="1.00" d=" M 639.64 486.55 C 640.36 489.31 641.17 492.10 641.08 494.99 C 640.82 508.66 641.06 522.34 640.88 536.02 C 641.03 539.64 640.79 543.77 643.23 546.76 C 645.83 549.58 649.35 551.28 652.55 553.33 C 648.43 555.63 644.13 557.61 639.59 558.92 C 639.16 555.29 638.73 551.65 638.82 548.00 C 639.32 534.33 638.97 520.66 639.09 506.99 C 639.12 500.18 638.71 493.33 639.64 486.55 Z" />
<path fill="#0070d1" opacity="1.00" d=" M 582.84 573.74 C 587.37 572.23 591.62 569.30 596.54 569.37 C 597.74 572.74 596.87 576.32 596.26 579.72 C 591.93 579.77 587.54 580.06 583.44 581.54 C 577.75 583.53 572.04 585.78 565.96 586.12 C 563.43 586.45 561.18 585.04 558.93 584.17 C 566.01 578.89 574.83 577.12 582.84 573.74 Z" />
<path fill="#0070d1" opacity="1.00" d=" M 649.72 582.74 C 660.54 578.81 670.90 573.37 682.23 570.98 C 685.36 570.03 688.35 571.55 691.09 572.92 C 688.52 574.54 685.90 576.10 683.09 577.28 C 668.53 583.10 653.83 588.61 639.44 594.83 C 638.61 592.64 637.01 590.46 637.57 588.02 C 637.83 586.82 638.25 585.19 639.67 584.92 C 642.99 584.06 646.46 583.84 649.72 582.74 Z" />
</g>
<g id="#ebcc32ff">
<path fill="#ebcc32" opacity="1.00" d=" M 555.17 171.11 C 575.00 177.89 594.12 186.58 612.60 196.42 C 616.44 198.34 620.14 200.68 624.29 201.89 C 627.01 202.61 629.63 201.09 632.10 200.14 C 639.79 196.56 647.38 192.74 655.01 189.01 C 669.50 181.96 684.35 175.63 699.64 170.52 C 713.96 175.84 728.38 181.37 741.14 189.93 C 731.28 189.66 721.35 189.04 711.59 190.73 C 700.66 192.66 689.90 195.58 679.41 199.20 C 664.16 204.26 649.71 211.34 635.29 218.34 C 632.75 219.43 630.12 220.86 627.28 220.66 C 624.25 220.14 621.54 218.57 618.83 217.22 C 605.24 209.96 591.09 203.73 576.48 198.86 C 567.48 195.74 558.35 192.88 549.01 190.99 C 538.65 188.90 528.05 189.92 517.58 189.41 C 519.64 187.84 521.74 186.30 524.02 185.05 C 534.18 179.92 544.63 175.39 555.17 171.11 Z" />
<path fill="#ebcc32" opacity="1.00" d=" M 476.61 221.23 C 479.40 220.72 482.29 220.13 485.10 220.87 C 496.80 223.84 507.63 229.53 517.63 236.19 C 535.67 249.10 551.99 264.15 568.30 279.13 C 564.22 284.42 559.96 289.57 555.78 294.77 C 541.17 313.06 527.78 332.29 514.95 351.86 C 501.74 372.50 489.01 393.51 478.13 415.48 C 466.51 438.30 456.17 462.34 453.01 487.96 C 451.92 495.70 452.78 503.53 454.82 511.04 C 452.61 508.26 450.45 505.43 448.49 502.47 C 440.61 490.54 433.22 478.17 427.98 464.83 C 439.50 441.84 452.11 419.41 465.43 397.43 C 489.96 357.10 516.86 318.15 546.81 281.64 C 524.29 260.53 501.99 238.94 476.61 221.23 Z" />
<path fill="#ebcc32" opacity="1.00" d=" M 767.27 222.27 C 770.81 221.01 774.55 220.48 778.30 220.24 C 752.23 237.72 729.81 259.82 707.03 281.22 C 711.81 287.66 716.81 293.94 721.71 300.29 C 740.39 324.28 757.62 349.38 773.95 375.02 C 793.35 405.65 811.54 437.09 827.64 469.59 C 822.25 480.33 816.32 490.78 809.96 500.96 C 807.95 504.18 805.62 507.20 803.16 510.08 C 804.08 502.44 805.08 494.72 804.09 487.02 C 801.20 460.84 789.89 436.63 778.03 413.45 C 768.73 395.03 758.21 377.25 747.29 359.76 C 732.46 336.28 716.65 313.39 699.25 291.74 C 695.87 287.56 692.57 283.31 689.34 279.02 C 705.45 263.73 721.83 248.57 740.15 235.92 C 748.56 230.25 757.66 225.56 767.27 222.27 Z" />
<path fill="#ebcc32" opacity="1.00" d=" M 602.18 357.21 C 610.72 349.59 619.34 341.96 629.09 335.90 C 639.34 342.38 648.10 350.85 657.02 358.99 C 677.82 378.53 697.95 398.78 717.14 419.89 C 724.48 427.91 731.27 436.40 737.93 444.98 C 747.84 457.73 756.92 471.16 764.77 485.28 C 769.64 494.50 774.39 503.96 776.76 514.18 C 767.04 501.02 757.04 488.05 746.27 475.73 C 726.11 452.63 704.87 430.49 683.21 408.79 C 668.46 394.19 653.63 379.62 637.76 366.23 C 634.92 363.95 632.10 361.46 628.66 360.15 C 627.08 359.42 625.46 360.35 624.07 361.03 C 620.90 362.74 618.10 365.05 615.29 367.28 C 603.89 376.48 593.08 386.37 582.44 396.42 C 546.98 429.79 513.89 465.73 484.06 504.23 C 485.03 500.69 486.30 497.25 487.94 493.97 C 495.73 478.07 505.59 463.26 516.21 449.13 C 541.73 415.73 570.95 385.29 602.18 357.21 Z" />
</g>
<g id="#107c10ff">
<path fill="#107c10" opacity="1.00" d=" M 544.46 213.61 C 554.25 206.97 565.73 203.57 576.48 198.86 C 591.09 203.73 605.24 209.96 618.83 217.22 C 621.54 218.57 624.25 220.14 627.28 220.66 C 630.12 220.86 632.75 219.43 635.29 218.34 C 649.71 211.34 664.16 204.26 679.41 199.20 C 690.18 203.83 701.62 207.18 711.41 213.86 C 704.34 213.82 697.24 213.39 690.24 214.56 C 671.49 217.43 653.71 224.55 636.67 232.66 C 633.52 234.05 630.43 235.77 627.00 236.38 C 623.41 235.60 620.22 233.67 616.93 232.12 C 606.38 226.75 595.29 222.52 584.02 218.95 C 576.53 216.59 568.90 214.38 561.02 213.94 C 555.51 213.48 549.97 213.94 544.46 213.61 Z" />
<path fill="#107c10" opacity="1.00" d=" M 517.63 236.19 C 525.71 237.24 533.21 240.78 540.18 244.85 C 552.42 252.23 563.23 261.65 574.02 270.95 C 576.72 273.30 579.60 275.49 581.96 278.21 C 580.62 281.49 577.82 283.86 575.65 286.58 C 563.20 301.35 551.78 316.97 541.04 333.02 C 530.10 349.45 519.87 366.38 511.06 384.05 C 504.02 398.20 498.02 413.15 496.02 428.93 C 495.24 434.35 495.94 439.81 496.89 445.16 C 489.43 436.06 483.89 425.67 478.13 415.48 C 489.01 393.51 501.74 372.50 514.95 351.86 C 527.78 332.29 541.17 313.06 555.78 294.77 C 559.96 289.57 564.22 284.42 568.30 279.13 C 551.99 264.15 535.67 249.10 517.63 236.19 Z" />
<path fill="#107c10" opacity="1.00" d=" M 716.81 243.82 C 724.07 239.96 731.77 236.21 740.15 235.92 C 721.83 248.57 705.45 263.73 689.34 279.02 C 692.57 283.31 695.87 287.56 699.25 291.74 C 716.65 313.39 732.46 336.28 747.29 359.76 C 758.21 377.25 768.73 395.03 778.03 413.45 C 771.89 424.27 766.38 435.61 758.26 445.14 C 758.89 440.47 759.79 435.78 759.34 431.06 C 758.21 417.70 753.84 404.83 748.25 392.73 C 740.67 376.21 731.49 360.49 721.89 345.08 C 709.77 325.87 696.68 307.25 682.28 289.68 C 679.13 285.89 676.00 282.07 672.91 278.23 C 686.87 265.97 700.60 253.13 716.81 243.82 Z" />
<path fill="#107c10" opacity="1.00" d=" M 619.23 325.22 C 621.97 323.15 624.67 320.85 627.99 319.77 C 631.26 320.91 633.89 323.28 636.57 325.39 C 650.19 336.71 663.06 348.90 675.67 361.33 C 688.97 374.42 702.00 387.87 713.19 402.83 C 723.07 415.81 732.23 429.60 737.93 444.98 C 731.27 436.40 724.48 427.91 717.14 419.89 C 697.95 398.78 677.82 378.53 657.02 358.99 C 648.10 350.85 639.34 342.38 629.09 335.90 C 619.34 341.96 610.72 349.59 602.18 357.21 C 570.95 385.29 541.73 415.73 516.21 449.13 C 519.68 436.34 526.47 424.80 533.90 413.95 C 547.27 394.67 563.09 377.23 579.65 360.66 C 592.32 348.27 605.35 336.23 619.23 325.22 Z" />
</g>
<g id="#2d83b0ff">
<path fill="#2d83b0" opacity="1.00" d=" M 599.45 448.57 C 603.13 447.62 606.96 448.67 610.57 449.56 C 620.53 452.44 630.52 455.25 640.24 458.88 C 648.98 462.01 657.77 465.32 665.50 470.58 C 672.51 475.12 678.02 481.81 681.52 489.37 C 685.05 497.40 685.87 506.32 685.92 515.01 C 685.94 522.15 685.89 529.54 683.16 536.27 C 681.24 541.47 677.25 545.46 674.42 550.14 C 678.41 551.78 682.79 551.71 687.01 552.18 C 696.88 553.07 706.52 555.74 715.70 559.41 C 720.55 561.37 725.17 564.43 728.01 568.93 C 730.36 572.66 730.28 577.59 728.43 581.52 C 726.66 585.18 723.30 587.74 719.89 589.79 C 710.81 595.15 700.62 598.08 690.84 601.81 C 677.77 607.12 664.61 612.19 651.58 617.61 C 647.93 619.11 643.96 619.50 640.17 620.51 C 637.43 621.16 634.79 622.26 632.01 622.72 C 628.75 622.66 625.69 621.35 622.63 620.37 C 616.92 618.27 611.06 616.61 605.28 614.72 C 602.98 613.84 600.46 613.11 598.67 611.34 C 596.82 608.94 596.02 605.94 594.43 603.40 C 589.91 603.08 585.51 604.49 581.03 604.78 C 565.47 605.99 549.70 603.36 535.14 597.82 C 530.19 595.96 525.36 593.11 522.44 588.57 C 520.24 585.28 519.32 580.80 521.20 577.16 C 523.46 572.92 527.46 569.99 531.45 567.49 C 536.31 564.56 541.33 561.85 546.65 559.81 C 558.08 555.60 569.60 551.60 580.92 547.07 C 585.26 545.32 589.96 544.78 594.37 543.23 C 595.45 541.36 595.31 539.10 595.44 537.03 C 595.22 513.69 595.43 490.34 595.32 467.00 C 595.31 462.79 595.02 458.55 595.66 454.38 C 596.04 452.07 597.11 449.49 599.45 448.57 M 597.72 454.44 C 596.96 458.58 597.34 462.81 597.33 467.00 C 597.44 491.34 597.24 515.69 597.44 540.03 C 597.34 541.87 597.42 543.82 596.61 545.53 C 592.20 546.80 587.45 546.56 583.15 548.30 C 574.66 551.63 565.93 554.38 557.83 558.62 C 551.83 561.98 544.55 561.85 538.68 565.51 C 533.60 568.66 527.74 571.12 524.13 576.10 C 521.57 579.45 521.65 584.43 524.33 587.70 C 529.13 594.31 537.32 596.78 544.81 598.97 C 557.14 602.69 570.12 603.31 582.91 602.59 C 587.36 602.30 591.56 600.64 595.92 599.85 C 597.28 603.00 597.84 606.48 599.53 609.50 C 601.51 611.45 604.34 612.13 606.89 613.06 C 612.93 614.89 618.89 616.97 624.85 619.08 C 627.64 619.91 630.58 621.06 633.54 620.48 C 635.50 619.37 637.07 617.74 638.72 616.25 C 640.99 616.78 643.29 618.03 645.67 617.44 C 649.90 616.37 653.76 614.27 657.81 612.71 C 673.06 606.65 688.29 600.55 703.52 594.46 C 710.17 591.79 717.23 589.53 722.68 584.68 C 724.74 582.79 727.07 580.75 727.68 577.89 C 728.30 573.30 726.36 568.30 722.42 565.74 C 718.22 562.94 713.43 561.19 708.79 559.28 C 698.75 555.14 687.82 553.49 677.01 553.44 C 674.00 553.32 671.03 552.80 668.07 552.33 C 672.24 547.11 678.22 543.16 680.61 536.67 C 684.27 528.26 683.83 518.90 683.67 509.94 C 683.53 500.85 681.20 491.57 675.83 484.13 C 669.70 475.78 661.00 469.57 651.47 465.66 C 639.55 460.82 627.37 456.57 614.94 453.24 C 610.97 452.21 607.04 450.80 602.93 450.51 C 600.50 450.19 598.09 452.02 597.72 454.44 Z" />
<path fill="#2d83b0" opacity="1.00" d=" M 636.89 486.00 C 637.14 483.98 638.93 482.71 640.16 481.26 C 641.87 483.55 643.79 485.96 643.96 488.96 C 644.62 495.28 644.12 501.65 644.21 508.00 C 644.36 519.27 643.96 530.56 644.28 541.83 C 644.40 543.31 644.50 544.82 644.89 546.28 C 645.79 547.68 647.44 548.27 648.85 549.02 C 651.97 550.42 655.00 552.02 657.95 553.74 C 651.03 556.47 643.71 558.49 637.69 563.06 C 637.15 559.73 636.60 556.38 636.57 553.01 C 636.77 535.67 636.61 518.33 636.67 501.00 C 636.74 496.00 636.24 490.97 636.89 486.00 M 639.64 486.55 C 638.71 493.33 639.12 500.18 639.09 506.99 C 638.97 520.66 639.32 534.33 638.82 548.00 C 638.73 551.65 639.16 555.29 639.59 558.92 C 644.13 557.61 648.43 555.63 652.55 553.33 C 649.35 551.28 645.83 549.58 643.23 546.76 C 640.79 543.77 641.03 539.64 640.88 536.02 C 641.06 522.34 640.82 508.66 641.08 494.99 C 641.17 492.10 640.36 489.31 639.64 486.55 Z" />
</g>
<g id="#669e83ff">
<path fill="#669e83" opacity="1.00" d=" M 597.72 454.44 C 598.09 452.02 600.50 450.19 602.93 450.51 C 607.04 450.80 610.97 452.21 614.94 453.24 C 627.37 456.57 639.55 460.82 651.47 465.66 C 661.00 469.57 669.70 475.78 675.83 484.13 C 681.20 491.57 683.53 500.85 683.67 509.94 C 683.83 518.90 684.27 528.26 680.61 536.67 C 678.22 543.16 672.24 547.11 668.07 552.33 C 671.03 552.80 674.00 553.32 677.01 553.44 C 687.82 553.49 698.75 555.14 708.79 559.28 C 713.43 561.19 718.22 562.94 722.42 565.74 C 726.36 568.30 728.30 573.30 727.68 577.89 C 727.07 580.75 724.74 582.79 722.68 584.68 C 717.23 589.53 710.17 591.79 703.52 594.46 C 688.29 600.55 673.06 606.65 657.81 612.71 C 653.76 614.27 649.90 616.37 645.67 617.44 C 643.29 618.03 640.99 616.78 638.72 616.25 C 637.07 617.74 635.50 619.37 633.54 620.48 C 630.58 621.06 627.64 619.91 624.85 619.08 C 618.89 616.97 612.93 614.89 606.89 613.06 C 604.34 612.13 601.51 611.45 599.53 609.50 C 597.84 606.48 597.28 603.00 595.92 599.85 C 591.56 600.64 587.36 602.30 582.91 602.59 C 570.12 603.31 557.14 602.69 544.81 598.97 C 537.32 596.78 529.13 594.31 524.33 587.70 C 521.65 584.43 521.57 579.45 524.13 576.10 C 527.74 571.12 533.60 568.66 538.68 565.51 C 544.55 561.85 551.83 561.98 557.83 558.62 C 565.93 554.38 574.66 551.63 583.15 548.30 C 587.45 546.56 592.20 546.80 596.61 545.53 C 597.42 543.82 597.34 541.87 597.44 540.03 C 597.24 515.69 597.44 491.34 597.33 467.00 C 597.34 462.81 596.96 458.58 597.72 454.44 M 601.49 452.56 C 599.31 453.37 599.53 456.03 599.34 457.91 C 599.44 502.27 599.36 546.64 599.38 591.00 C 599.47 596.20 598.90 601.44 599.72 606.60 C 599.89 608.62 601.83 609.59 603.45 610.34 C 609.23 612.91 615.50 614.02 621.55 615.75 C 624.97 616.65 628.34 617.91 631.90 618.19 C 634.62 617.46 634.70 614.35 634.78 612.06 C 634.68 574.71 634.70 537.35 634.69 500.00 C 634.60 494.19 634.41 488.33 635.45 482.59 C 636.78 481.83 638.11 481.09 639.45 480.34 C 639.62 480.57 639.98 481.03 640.16 481.26 C 638.93 482.71 637.14 483.98 636.89 486.00 C 636.24 490.97 636.74 496.00 636.67 501.00 C 636.61 518.33 636.77 535.67 636.57 553.01 C 636.60 556.38 637.15 559.73 637.69 563.06 C 643.71 558.49 651.03 556.47 657.95 553.74 C 655.00 552.02 651.97 550.42 648.85 549.02 C 647.44 548.27 645.79 547.68 644.89 546.28 C 644.50 544.82 644.40 543.31 644.28 541.83 C 645.19 545.15 648.14 547.59 651.40 548.48 C 656.07 549.86 661.18 550.28 665.90 548.86 C 672.96 546.63 678.16 540.35 680.23 533.38 C 682.38 526.14 682.14 518.48 682.00 511.01 C 681.73 501.84 680.14 492.05 674.01 484.83 C 671.86 480.61 668.14 477.46 664.37 474.71 C 655.94 468.66 646.07 465.17 636.38 461.73 C 628.16 458.68 619.69 456.39 611.31 453.83 C 608.13 453.00 604.80 451.95 601.49 452.56 M 580.74 552.39 C 571.85 555.08 563.20 558.50 554.38 561.41 C 547.29 563.81 540.84 567.66 534.27 571.17 C 530.28 573.40 526.11 576.47 524.86 581.10 C 524.46 585.23 526.90 589.38 530.44 591.45 C 538.02 595.99 546.73 598.12 555.39 599.44 C 564.12 601.07 573.05 601.09 581.89 600.65 C 585.05 600.42 588.29 600.22 591.28 599.06 C 593.71 598.13 594.44 595.33 594.68 593.01 C 595.20 589.20 594.05 585.47 593.10 581.83 C 589.62 582.38 586.16 583.15 582.97 584.68 C 577.07 587.52 570.51 588.62 564.01 588.81 C 561.61 588.80 559.14 588.84 556.84 588.08 C 554.86 587.02 554.98 584.31 555.48 582.45 C 556.91 580.12 559.76 579.31 562.14 578.29 C 569.00 575.87 575.76 573.17 582.64 570.79 C 585.67 569.64 588.87 568.54 591.24 566.24 C 592.92 564.65 593.35 562.26 593.52 560.07 C 593.73 556.60 593.56 552.96 591.89 549.84 C 587.98 549.23 584.39 551.35 580.74 552.39 M 649.75 559.50 C 646.63 560.60 642.65 561.85 641.64 565.41 C 640.45 570.93 641.44 576.61 642.18 582.12 C 645.56 581.38 648.97 580.59 652.13 579.10 C 657.94 576.39 663.99 574.25 669.90 571.77 C 676.77 568.99 684.49 567.07 691.85 568.93 C 693.81 569.38 696.28 571.54 694.92 573.67 C 693.13 576.17 690.07 577.26 687.38 578.49 C 674.26 583.69 661.17 588.94 648.05 594.14 C 645.64 595.36 642.24 596.37 641.66 599.40 C 640.89 603.80 640.86 608.35 641.51 612.77 C 641.56 614.00 642.32 615.07 643.43 615.62 C 646.05 615.75 648.57 614.81 650.99 613.91 C 667.83 606.99 684.79 600.36 701.69 593.58 C 709.17 590.58 717.20 587.86 723.00 582.01 C 726.14 578.91 726.64 573.55 723.87 570.06 C 720.57 565.74 715.30 563.63 710.37 561.77 C 691.07 554.84 669.46 553.45 649.75 559.50 M 582.84 573.74 C 574.83 577.12 566.01 578.89 558.93 584.17 C 561.18 585.04 563.43 586.45 565.96 586.12 C 572.04 585.78 577.75 583.53 583.44 581.54 C 587.54 580.06 591.93 579.77 596.26 579.72 C 596.87 576.32 597.74 572.74 596.54 569.37 C 591.62 569.30 587.37 572.23 582.84 573.74 M 649.72 582.74 C 646.46 583.84 642.99 584.06 639.67 584.92 C 638.25 585.19 637.83 586.82 637.57 588.02 C 637.01 590.46 638.61 592.64 639.44 594.83 C 653.83 588.61 668.53 583.10 683.09 577.28 C 685.90 576.10 688.52 574.54 691.09 572.92 C 688.35 571.55 685.36 570.03 682.23 570.98 C 670.90 573.37 660.54 578.81 649.72 582.74 Z" />
</g>
<g id="#c5c039ff">
<path fill="#c5c039" opacity="1.00" d=" M 601.49 452.56 C 604.80 451.95 608.13 453.00 611.31 453.83 C 619.69 456.39 628.16 458.68 636.38 461.73 C 646.07 465.17 655.94 468.66 664.37 474.71 C 668.14 477.46 671.86 480.61 674.01 484.83 C 677.39 492.24 680.13 500.08 680.77 508.26 C 681.47 516.96 681.45 526.03 678.32 534.31 C 676.15 539.91 672.10 545.16 666.35 547.36 C 661.67 548.98 656.46 548.76 651.76 547.32 C 649.77 546.60 647.42 545.59 646.78 543.36 C 645.90 540.33 646.04 537.12 646.02 534.00 C 646.30 521.67 646.03 509.34 646.24 497.00 C 646.12 491.86 646.42 486.15 643.28 481.75 C 641.69 479.38 638.48 479.71 636.02 479.16 C 635.88 480.02 635.59 481.73 635.45 482.59 C 634.41 488.33 634.60 494.19 634.69 500.00 C 634.70 537.35 634.68 574.71 634.78 612.06 C 634.70 614.35 634.62 617.46 631.90 618.19 C 628.34 617.91 624.97 616.65 621.55 615.75 C 615.50 614.02 609.23 612.91 603.45 610.34 C 601.83 609.59 599.89 608.62 599.72 606.60 C 598.90 601.44 599.47 596.20 599.38 591.00 C 599.36 546.64 599.44 502.27 599.34 457.91 C 599.53 456.03 599.31 453.37 601.49 452.56 M 603.32 455.22 C 601.89 457.15 602.03 459.68 601.90 461.96 C 602.00 507.98 601.98 554.01 601.91 600.04 C 601.99 602.12 602.07 604.27 602.81 606.26 C 605.65 608.85 609.61 609.58 613.15 610.77 C 618.76 612.30 624.14 614.81 629.98 615.38 C 632.57 613.45 632.25 609.89 632.44 607.03 C 632.22 567.00 632.49 526.96 632.29 486.93 C 632.25 483.86 632.91 480.41 635.67 478.61 C 638.45 476.36 642.49 478.01 644.40 480.61 C 647.54 484.66 647.62 490.06 647.73 494.96 C 647.67 508.98 647.72 523.01 647.62 537.03 C 647.80 539.70 647.48 543.30 650.31 544.73 C 654.77 547.21 660.34 547.85 665.23 546.31 C 671.60 544.00 675.97 537.98 677.74 531.62 C 679.87 523.96 679.93 515.87 679.23 508.00 C 678.47 500.28 676.68 492.35 672.00 486.00 C 666.53 478.57 658.57 473.33 650.13 469.83 C 639.51 465.40 628.54 461.90 617.57 458.45 C 612.90 457.08 608.23 455.39 603.32 455.22 Z" />
<path fill="#c5c039" opacity="1.00" d=" M 580.74 552.39 C 584.39 551.35 587.98 549.23 591.89 549.84 C 593.56 552.96 593.73 556.60 593.52 560.07 C 593.35 562.26 592.92 564.65 591.24 566.24 C 588.87 568.54 585.67 569.64 582.64 570.79 C 575.76 573.17 569.00 575.87 562.14 578.29 C 559.76 579.31 556.91 580.12 555.48 582.45 C 554.98 584.31 554.86 587.02 556.84 588.08 C 559.14 588.84 561.61 588.80 564.01 588.81 C 570.51 588.62 577.07 587.52 582.97 584.68 C 586.16 583.15 589.62 582.38 593.10 581.83 C 594.05 585.47 595.20 589.20 594.68 593.01 C 594.44 595.33 593.71 598.13 591.28 599.06 C 588.29 600.22 585.05 600.42 581.89 600.65 C 573.05 601.09 564.12 601.07 555.39 599.44 C 546.73 598.12 538.02 595.99 530.44 591.45 C 526.90 589.38 524.46 585.23 524.86 581.10 C 526.11 576.47 530.28 573.40 534.27 571.17 C 540.84 567.66 547.29 563.81 554.38 561.41 C 563.20 558.50 571.85 555.08 580.74 552.39 M 580.51 554.34 C 572.58 557.63 564.42 560.31 556.43 563.42 C 547.35 566.89 537.59 569.61 530.11 576.13 C 528.00 577.97 525.71 580.81 527.01 583.77 C 528.73 587.67 532.66 589.96 536.41 591.59 C 551.77 597.58 568.58 600.06 584.98 598.04 C 586.82 597.73 588.74 597.39 590.32 596.33 C 592.04 592.99 591.68 588.97 590.49 585.52 C 587.11 585.25 583.96 586.76 580.83 587.79 C 573.78 590.41 566.01 591.96 558.56 590.30 C 555.71 589.58 552.42 587.35 552.70 584.05 C 553.22 580.30 557.05 578.51 560.12 577.11 C 568.48 573.66 577.12 570.94 585.48 567.49 C 587.60 566.43 590.35 565.43 591.01 562.89 C 591.81 559.15 591.24 555.30 591.01 551.54 C 587.44 552.21 583.86 552.93 580.51 554.34 Z" />
<path fill="#c5c039" opacity="1.00" d=" M 649.75 559.50 C 669.46 553.45 691.07 554.84 710.37 561.77 C 715.30 563.63 720.57 565.74 723.87 570.06 C 726.64 573.55 726.14 578.91 723.00 582.01 C 717.20 587.86 709.17 590.58 701.69 593.58 C 684.79 600.36 667.83 606.99 650.99 613.91 C 648.57 614.81 646.05 615.75 643.43 615.62 C 642.32 615.07 641.56 614.00 641.51 612.77 C 640.86 608.35 640.89 603.80 641.66 599.40 C 642.24 596.37 645.64 595.36 648.05 594.14 C 661.17 588.94 674.26 583.69 687.38 578.49 C 690.07 577.26 693.13 576.17 694.92 573.67 C 696.28 571.54 693.81 569.38 691.85 568.93 C 684.49 567.07 676.77 568.99 669.90 571.77 C 663.99 574.25 657.94 576.39 652.13 579.10 C 648.97 580.59 645.56 581.38 642.18 582.12 C 641.44 576.61 640.45 570.93 641.64 565.41 C 642.65 561.85 646.63 560.60 649.75 559.50 M 651.15 561.08 C 648.42 561.96 644.85 562.74 643.90 565.87 C 642.66 569.92 643.57 574.21 644.03 578.32 C 652.17 576.98 659.46 572.98 667.11 570.11 C 675.10 566.79 684.02 564.39 692.65 566.45 C 695.27 567.12 698.55 568.78 698.24 572.00 C 698.48 576.32 693.99 578.24 690.74 579.78 C 680.14 584.31 669.33 588.32 658.64 592.63 C 654.23 594.49 649.45 595.69 645.46 598.43 C 643.65 599.62 643.71 602.05 643.50 603.98 C 643.41 606.90 643.54 610.34 646.00 612.36 C 651.01 611.47 655.57 609.11 660.27 607.28 C 674.80 601.49 689.31 595.64 703.86 589.90 C 708.94 587.85 714.18 585.92 718.61 582.61 C 720.75 580.97 722.84 578.76 723.07 575.94 C 723.27 572.50 720.70 569.71 717.95 568.05 C 712.83 564.98 707.05 563.26 701.35 561.61 C 685.07 557.00 667.51 556.70 651.15 561.08 Z" />
</g>
<g id="#ffea00ff">
<path fill="#ffea00" opacity="1.00" d=" M 603.32 455.22 C 608.23 455.39 612.90 457.08 617.57 458.45 C 628.54 461.90 639.51 465.40 650.13 469.83 C 658.57 473.33 666.53 478.57 672.00 486.00 C 676.68 492.35 678.47 500.28 679.23 508.00 C 679.93 515.87 679.87 523.96 677.74 531.62 C 675.97 537.98 671.60 544.00 665.23 546.31 C 660.34 547.85 654.77 547.21 650.31 544.73 C 647.48 543.30 647.80 539.70 647.62 537.03 C 647.72 523.01 647.67 508.98 647.73 494.96 C 647.62 490.06 647.54 484.66 644.40 480.61 C 642.49 478.01 638.45 476.36 635.67 478.61 C 632.91 480.41 632.25 483.86 632.29 486.93 C 632.49 526.96 632.22 567.00 632.44 607.03 C 632.25 609.89 632.57 613.45 629.98 615.38 C 624.14 614.81 618.76 612.30 613.15 610.77 C 609.61 609.58 605.65 608.85 602.81 606.26 C 602.07 604.27 601.99 602.12 601.91 600.04 C 601.98 554.01 602.00 507.98 601.90 461.96 C 602.03 459.68 601.89 457.15 603.32 455.22 Z" />
<path fill="#ffea00" opacity="1.00" d=" M 580.51 554.34 C 583.86 552.93 587.44 552.21 591.01 551.54 C 591.24 555.30 591.81 559.15 591.01 562.89 C 590.35 565.43 587.60 566.43 585.48 567.49 C 577.12 570.94 568.48 573.66 560.12 577.11 C 557.05 578.51 553.22 580.30 552.70 584.05 C 552.42 587.35 555.71 589.58 558.56 590.30 C 566.01 591.96 573.78 590.41 580.83 587.79 C 583.96 586.76 587.11 585.25 590.49 585.52 C 591.68 588.97 592.04 592.99 590.32 596.33 C 588.74 597.39 586.82 597.73 584.98 598.04 C 568.58 600.06 551.77 597.58 536.41 591.59 C 532.66 589.96 528.73 587.67 527.01 583.77 C 525.71 580.81 528.00 577.97 530.11 576.13 C 537.59 569.61 547.35 566.89 556.43 563.42 C 564.42 560.31 572.58 557.63 580.51 554.34 Z" />
<path fill="#ffea00" opacity="1.00" d=" M 651.15 561.08 C 667.51 556.70 685.07 557.00 701.35 561.61 C 707.05 563.26 712.83 564.98 717.95 568.05 C 720.70 569.71 723.27 572.50 723.07 575.94 C 722.84 578.76 720.75 580.97 718.61 582.61 C 714.18 585.92 708.94 587.85 703.86 589.90 C 689.31 595.64 674.80 601.49 660.27 607.28 C 655.57 609.11 651.01 611.47 646.00 612.36 C 643.54 610.34 643.41 606.90 643.50 603.98 C 643.71 602.05 643.65 599.62 645.46 598.43 C 649.45 595.69 654.23 594.49 658.64 592.63 C 669.33 588.32 680.14 584.31 690.74 579.78 C 693.99 578.24 698.48 576.32 698.24 572.00 C 698.55 568.78 695.27 567.12 692.65 566.45 C 684.02 564.39 675.10 566.79 667.11 570.11 C 659.46 572.98 652.17 576.98 644.03 578.32 C 643.57 574.21 642.66 569.92 643.90 565.87 C 644.85 562.74 648.42 561.96 651.15 561.08 Z" />
</g>
<g id="#9eb358ff">
<path fill="#9eb358" opacity="1.00" d=" M 636.02 479.16 C 638.48 479.71 641.69 479.38 643.28 481.75 C 646.42 486.15 646.12 491.86 646.24 497.00 C 646.03 509.34 646.30 521.67 646.02 534.00 C 646.04 537.12 645.90 540.33 646.78 543.36 C 647.42 545.59 649.77 546.60 651.76 547.32 C 656.46 548.76 661.67 548.98 666.35 547.36 C 672.10 545.16 676.15 539.91 678.32 534.31 C 681.45 526.03 681.47 516.96 680.77 508.26 C 680.13 500.08 677.39 492.24 674.01 484.83 C 680.14 492.05 681.73 501.84 682.00 511.01 C 682.14 518.48 682.38 526.14 680.23 533.38 C 678.16 540.35 672.96 546.63 665.90 548.86 C 661.18 550.28 656.07 549.86 651.40 548.48 C 648.14 547.59 645.19 545.15 644.28 541.83 C 643.96 530.56 644.36 519.27 644.21 508.00 C 644.12 501.65 644.62 495.28 643.96 488.96 C 643.79 485.96 641.87 483.55 640.16 481.26 C 639.98 481.03 639.62 480.57 639.45 480.34 C 638.11 481.09 636.78 481.83 635.45 482.59 C 635.59 481.73 635.88 480.02 636.02 479.16 Z" />
</g>
<g id="#388fdbff">
<path fill="#388fdb" opacity="1.00" d=" M 661.31 617.08 L 662.02 616.66 L 662.74 617.07 L 662.74 617.90 L 662.03 618.31 L 661.31 617.90 L 661.31 617.08 Z" />
</g>
</svg>
